<svg xmlns="http://www.w3.org/2000/svg" width="1426.723" height="411.6" viewBox="0 0 1426.723 411.6">
  <g id="_65db19e7e48a1e375c6f7a27_innofab" data-name="65db19e7e48a1e375c6f7a27_innofab" transform="translate(-108.2 -154.8)">
    <g id="Group_1" data-name="Group 1" transform="translate(240.6 -258.791)">
      <path id="Path_1" data-name="Path 1" d="M198.8,626.3a23.408,23.408,0,0,1,1.938-9.69,25.984,25.984,0,0,1,13.372-13.372,25.193,25.193,0,0,1,19.38,0,25.984,25.984,0,0,1,13.372,13.372,25.193,25.193,0,0,1,0,19.38,25.984,25.984,0,0,1-13.372,13.372,25.193,25.193,0,0,1-19.38,0,25.985,25.985,0,0,1-13.372-13.372A24.045,24.045,0,0,1,198.8,626.3Zm47.093,47.868v125H201.707v-125Z" transform="translate(0.4 3.471)" fill="#bfdb38"/>
      <path id="Path_2" data-name="Path 2" d="M269.088,640.213h44.186V656.1c6.008-7.364,12.015-12.209,18.217-14.729A57.12,57.12,0,0,1,353.2,637.5c8.721,0,16.279,1.357,22.48,4.264a44.319,44.319,0,0,1,15.891,12.015,36.7,36.7,0,0,1,7.364,14.147,70.759,70.759,0,0,1,1.938,17.829v79.457H356.684V702.035c0-6.2-.388-11.24-1.357-14.922A18.734,18.734,0,0,0,350.482,678a15.68,15.68,0,0,0-6.589-4.07,25.894,25.894,0,0,0-7.752-1.163c-7.558,0-13.178,2.326-17.248,6.783s-6.008,10.853-6.008,19.186V765.6H268.7V640.213Z" transform="translate(21.5 37.425)" fill="#bfdb38"/>
      <path id="Path_3" data-name="Path 3" d="M375,640.213h44.186V656.1c6.008-7.364,12.015-12.209,18.217-14.729a57.12,57.12,0,0,1,21.705-3.876c8.721,0,16.279,1.357,22.48,4.264a44.319,44.319,0,0,1,15.891,12.015,36.7,36.7,0,0,1,7.364,14.147,70.755,70.755,0,0,1,1.938,17.829v79.457H462.6V702.035c0-6.2-.388-11.24-1.357-14.922A18.734,18.734,0,0,0,456.395,678a15.679,15.679,0,0,0-6.589-4.07,25.893,25.893,0,0,0-7.752-1.163c-7.558,0-13.178,2.326-17.248,6.783S418.8,690.407,418.8,698.74V765.6H375Z" transform="translate(89.2 37.425)" fill="#bfdb38"/>
      <path id="Path_4" data-name="Path 4" d="M471.2,702.591a61.921,61.921,0,0,1,5.62-25.969,59.594,59.594,0,0,1,15.7-20.93,69.155,69.155,0,0,1,23.837-13.953c9.108-3.488,19.186-5.039,30.038-5.039a87.688,87.688,0,0,1,29.845,5.039,72.957,72.957,0,0,1,23.837,13.953,62.1,62.1,0,0,1,15.7,21.124,65.331,65.331,0,0,1,5.62,27.131,62.505,62.505,0,0,1-5.814,27.132,65.429,65.429,0,0,1-15.7,21.124c-6.589,6.008-14.729,10.465-24.031,13.76a90.273,90.273,0,0,1-30.426,4.845,87.658,87.658,0,0,1-29.845-4.845,69.21,69.21,0,0,1-23.449-13.953,63.731,63.731,0,0,1-15.5-21.511A69.6,69.6,0,0,1,471.2,702.591Zm46.511.388a28.318,28.318,0,0,0,2.326,11.628,29.805,29.805,0,0,0,6.008,9.108,28.417,28.417,0,0,0,20.155,8.139,30.285,30.285,0,0,0,11.046-2.132,27.149,27.149,0,0,0,15.116-15.116,28.055,28.055,0,0,0,2.326-11.434,26.9,26.9,0,0,0-2.326-11.047,29.806,29.806,0,0,0-6.008-9.108,28.419,28.419,0,0,0-20.155-8.139,30.285,30.285,0,0,0-11.047,2.132,27.15,27.15,0,0,0-15.116,15.116A25.373,25.373,0,0,0,517.711,702.978Z" transform="translate(166 36.674)" fill="#bfdb38"/>
      <path id="Path_5" data-name="Path 5" d="M653.277,714.459v88.177H609.091V714.459H593.2V677.638h15.891v-18.8c0-10.465.969-18.6,2.907-24.806A43.975,43.975,0,0,1,619.75,619.5a55.529,55.529,0,0,1,12.6-11.628,57.533,57.533,0,0,1,15.5-7.558A54.058,54.058,0,0,1,664.13,597.6a83.951,83.951,0,0,1,10.271.581,71.783,71.783,0,0,1,9.69,1.744v37.209a58.6,58.6,0,0,0-7.752-.581,59.8,59.8,0,0,0-8.333,0,26.169,26.169,0,0,0-5.426.775,11.355,11.355,0,0,0-5.232,3.488,15.148,15.148,0,0,0-3.295,7.752,83.534,83.534,0,0,0-.775,13.566v15.7h31.007v36.821H653.277Z" transform="translate(235)" fill="#626e7d"/>
      <path id="Path_6" data-name="Path 6" d="M761.743,640.776h44.379v125H761.743V751.821c-9.5,11.822-22.093,17.829-38.372,17.829a63.559,63.559,0,0,1-25.193-5.039,59.925,59.925,0,0,1-19.961-13.953,69.964,69.964,0,0,1-13.372-21.124A74.293,74.293,0,0,1,660,702.985a69.455,69.455,0,0,1,4.651-25.387,63.411,63.411,0,0,1,12.984-21.124A59.022,59.022,0,0,1,697.4,642.133,60.086,60.086,0,0,1,722.79,636.9c15.7,0,28.488,5.426,38.759,16.279v-12.4Zm-55.62,62.209a32.368,32.368,0,0,0,2.132,11.434,29.8,29.8,0,0,0,6.008,9.108,26.662,26.662,0,0,0,9.109,6.008,27.949,27.949,0,0,0,11.434,2.132,30.281,30.281,0,0,0,11.046-2.132,27.149,27.149,0,0,0,15.116-15.116,26.25,26.25,0,0,0,2.326-11.047,26.9,26.9,0,0,0-2.326-11.046,29.8,29.8,0,0,0-6.008-9.109,28.418,28.418,0,0,0-20.155-8.139,32.368,32.368,0,0,0-11.434,2.132,29.806,29.806,0,0,0-9.109,6.008,31.378,31.378,0,0,0-6.008,8.915A29.269,29.269,0,0,0,706.124,702.985Z" transform="translate(301.2 36.862)" fill="#626e7d"/>
      <path id="Path_7" data-name="Path 7" d="M812.773,599.1v89.728q15.7-16.279,38.953-16.279a60.085,60.085,0,0,1,25.387,5.233,58.52,58.52,0,0,1,19.767,14.147,67.516,67.516,0,0,1,12.791,20.93,71.532,71.532,0,0,1,4.651,25.775,69.009,69.009,0,0,1-4.845,26.163,61.327,61.327,0,0,1-13.372,21.124,62.634,62.634,0,0,1-20.155,14.341,60.212,60.212,0,0,1-25,5.232c-16.279,0-29.069-6.008-38.565-17.829v13.953H768.2V599.1Zm55.62,140.115a30.281,30.281,0,0,0-2.132-11.046,29.8,29.8,0,0,0-6.008-9.108,30.3,30.3,0,0,0-9.108-6.2,27.144,27.144,0,0,0-11.24-2.326,30.283,30.283,0,0,0-11.047,2.132,28.882,28.882,0,0,0-8.915,6.008,29.8,29.8,0,0,0-6.008,9.108,26.9,26.9,0,0,0-2.326,11.046,30.28,30.28,0,0,0,2.132,11.047,28.883,28.883,0,0,0,6.008,8.915,29.8,29.8,0,0,0,9.108,6.008,26.9,26.9,0,0,0,11.047,2.326,30.283,30.283,0,0,0,11.046-2.132,28.881,28.881,0,0,0,8.915-6.008,29.8,29.8,0,0,0,6.008-9.108A22.717,22.717,0,0,0,868.393,739.215Z" transform="translate(380 1.407)" fill="#626e7d"/>
    </g>
    <g id="Group_2" data-name="Group 2" transform="translate(-240 -16)">
      <path id="Path_8" data-name="Path 8" d="M470.5,428.3a9.347,9.347,0,0,1,9.3,9.3V540a9.347,9.347,0,0,1-9.3,9.3H429.2a9.347,9.347,0,0,1-9.3-9.3V437.6a9.347,9.347,0,0,1,9.3-9.3h41.3Z" fill="#bfdb38"/>
      <circle id="Ellipse_1" data-name="Ellipse 1" cx="34.2" cy="34.2" r="34.2" transform="translate(415.7 321.4)" fill="#bfdb38"/>
      <circle id="Ellipse_2" data-name="Ellipse 2" cx="24" cy="24" r="24" transform="translate(438.1 265.1)" fill="#626e7d"/>
      <circle id="Ellipse_3" data-name="Ellipse 3" cx="19.4" cy="19.4" r="19.4" transform="translate(454.9 196.5)" fill="#626e7d"/>
      <circle id="Ellipse_4" data-name="Ellipse 4" cx="16.9" cy="16.9" r="16.9" transform="translate(389.3 250.8)" fill="#626e7d"/>
      <circle id="Ellipse_5" data-name="Ellipse 5" cx="10.7" cy="10.7" r="10.7" transform="translate(367 302.7)" fill="#626e7d"/>
      <circle id="Ellipse_6" data-name="Ellipse 6" cx="13.4" cy="13.4" r="13.4" transform="translate(348.2 222.1)" fill="#626e7d"/>
      <circle id="Ellipse_7" data-name="Ellipse 7" cx="15.9" cy="15.9" r="15.9" transform="translate(387.3 170.8)" fill="#bfdb38"/>
      <circle id="Ellipse_8" data-name="Ellipse 8" cx="11.5" cy="11.5" r="11.5" transform="translate(519.1 216.2)" fill="#bfdb38"/>
      <circle id="Ellipse_9" data-name="Ellipse 9" cx="13.8" cy="13.8" r="13.8" transform="translate(490.6 253.1)" fill="#626e7d"/>
      <path id="Path_9" data-name="Path 9" d="M604.1,266a10.2,10.2,0,0,0-9.4-10s-7.6-.5-13.9-.8c-5.1-.3-16.9-.2-22.7-.2a81.889,81.889,0,0,0-25.4,4.2c-2.4.8-4.8,1.7-7.1,2.6a20.739,20.739,0,0,1,.6,5,21.608,21.608,0,0,1-30.9,19.6,21.748,21.748,0,0,1,.1,2.6,33.1,33.1,0,0,1-20,30.4A44.152,44.152,0,0,1,450,399.7a16.2,16.2,0,0,1-2.2-.1v.1h-.1a9.4,9.4,0,0,0,0,18.8,5.7,5.7,0,0,0,1.3-.1h21.6a19.163,19.163,0,0,1,19.1,19.1V540a19.115,19.115,0,0,1-17.3,19v14a9.389,9.389,0,0,0,9.4,9.4h49.8A9.389,9.389,0,0,0,541,573V446a9.389,9.389,0,0,1,9.4-9.4h30.9a9.389,9.389,0,0,0,9.4-9.4V388.8a9.389,9.389,0,0,0-9.4-9.4H550.4A9.389,9.389,0,0,1,541,370v-5.4c0-5.2.1-13.6.3-18.8a99.01,99.01,0,0,1,1.1-11.6c.9-5.2,2.6-9.2,5.1-11.9a18.068,18.068,0,0,1,8.1-5.5c2.9-.9,12.4-1.1,15.2-1.3,4.7-.3,8.4-.3,12.5-.3H595a9.475,9.475,0,0,0,9.4-9.5Z" fill="#626e7d"/>
    </g>
  </g>
</svg>
